Coordinates
version=1
nRows=16
nColumns=40
inDegrees=yes

Units are S.I. units (second, meters, Newtons, ...)
Angles are in degrees.

endheader
time	pelvis_tilt	pelvis_list	pelvis_rotation	pelvis_tx	pelvis_ty	pelvis_tz	hip_flexion_r	hip_adduction_r	hip_rotation_r	knee_angle_r	knee_angle_r_beta	ankle_angle_r	subtalar_angle_r	mtp_angle_r	hip_flexion_l	hip_adduction_l	hip_rotation_l	knee_angle_l	knee_angle_l_beta	ankle_angle_l	subtalar_angle_l	mtp_angle_l	lumbar_extension	lumbar_bending	lumbar_rotation	arm_flex_r	arm_add_r	arm_rot_r	elbow_flex_r	pro_sup_r	wrist_flex_r	wrist_dev_r	arm_flex_l	arm_add_l	arm_rot_l	elbow_flex_l	pro_sup_l	wrist_flex_l	wrist_dev_l
     10.02500000	     -7.89655490	     -3.09294026	     -9.96612335	      0.97070770	      0.92314321	      0.51451027	     21.78622174	      3.19185675	     -3.48342902	     22.10829623	     22.10829623	      9.67555651	      1.91651359	     -1.17925295	      3.54221809	     -7.86266155	    -12.36247361	     23.12162893	     23.12162893	     18.58070187	    -10.15317359	      1.32130821	     -8.62937059	      8.15950748	      1.69122512	    -11.33297305	    -12.97756907	    -19.95953386	     25.58219406	     46.65046183	      0.00000000	      0.00000000	     32.27990520	    -19.01771572	    -10.02353382	     76.32980679	     48.16163857	      0.00000000	      0.00000000
     10.04428571	     -7.81616124	     -3.12896359	     -9.63820372	      0.97122596	      0.92374544	      0.51844202	     21.09106386	      3.34486583	     -3.75130712	     21.87996566	     21.87996566	     10.12256006	      2.02741373	     -1.01929840	      4.28170201	     -8.44909090	    -11.95714918	     25.38209213	     25.38209213	     17.91530016	    -10.64315533	      0.61202532	     -8.59677728	      8.12914562	      1.59779362	    -10.74965699	    -13.42888547	    -20.01128573	     25.66471507	     46.65863235	      0.00000000	      0.00000000	     31.82093043	    -18.79076633	     -9.78429842	     75.50368953	     48.12645951	      0.00000000	      0.00000000
     10.06357143	     -7.76580274	     -3.15040931	     -9.26708989	      0.97146428	      0.92415158	      0.52217469	     20.53229755	      3.45480751	     -4.09195063	     21.83854813	     21.83854813	     10.94917337	      2.27876402	      0.14013005	      5.18325818	     -9.00554717	    -11.36323903	     27.69145311	     27.69145311	     15.96874330	    -11.85252562	     -2.70926612	     -8.43803904	      8.07262801	      1.86803609	    -10.09056545	    -13.85257308	    -20.20961690	     24.94837038	     46.71610540	      0.00000000	      0.00000000	     31.96390265	    -18.22951778	     -8.82915030	     72.94969112	     48.00867568	      0.00000000	      0.00000000
     10.08285714	     -7.60929157	     -3.21989138	     -8.84611748	      0.97152209	      0.92452388	      0.52570255	     19.83411094	      3.60056163	     -4.42463734	     21.71200275	     21.71200275	     11.37191251	      2.33632037	      0.08590589	      6.34815458	     -9.61479092	    -10.54226679	     30.73469157	     30.73469157	     15.06827378	    -12.72738821	     -3.22256428	     -8.53206947	      8.04669902	      1.75508801	     -9.33047557	    -14.26370513	    -20.27109430	     25.22815803	     46.71770517	      0.00000000	      0.00000000	     31.22946929	    -17.92923300	     -8.58430805	     72.19027543	     47.97251691	      0.00000000	      0.00000000
     10.10214286	     -7.51390688	     -3.27990774	     -8.36386800	      0.97128060	      0.92461180	      0.52896933	     19.28340623	      3.72864690	     -4.78524719	     21.69483041	     21.69483041	     11.81027462	      2.28802271	      0.02850505	      7.82739030	    -10.17857920	     -9.50046945	     34.08295746	     34.08295746	     13.94118670	    -13.77802471	     -3.76256599	     -8.50503231	      7.99823651	      1.55474614	     -8.44434380	    -14.65473740	    -20.29526019	     25.40662357	     46.72193515	      0.00000000	      0.00000000	     30.39929992	    -17.57973392	     -8.24431729	     70.90237708	     47.91989342	      0.00000000	      0.00000000
     10.12142857	     -7.39092695	     -3.32254018	     -7.82625111	      0.97084430	      0.92451821	      0.53196453	     18.79531046	      3.82760671	     -5.09699728	     21.82259478	     21.82259478	     12.30214860	      2.08580916	     -0.03077509	      9.46226117	    -10.63556075	     -8.27455524	     37.61070889	     37.61070889	     12.62579093	    -14.99434145	     -4.13216702	     -8.47060232	      7.93270874	      1.36316228	     -7.37498709	    -14.99910000	    -20.26960376	     25.43883737	     46.73041661	      0.00000000	      0.00000000	     29.58453235	    -17.16400978	     -7.79546670	     69.09650291	     47.85081649	      0.00000000	      0.00000000
     10.14071429	     -7.14441769	     -3.30518054	     -7.24697152	      0.97019141	      0.92437163	      0.53473966	     18.33201405	      3.85668409	     -5.29142896	     22.20300002	     22.20300002	     12.87810826	      1.60329953	      0.06528711	     11.10853349	    -10.87828426	     -6.84790793	     41.22385363	     41.22385363	     11.36201310	    -16.29865467	     -3.77695738	     -8.54914264	      7.77677061	      1.34778145	     -5.94378586	    -15.31701022	    -20.13609484	     24.62713050	     46.77332911	      0.00000000	      0.00000000	     29.36779652	    -16.61425990	     -6.91139446	     65.46898813	     47.72310692	      0.00000000	      0.00000000
     10.16000000	     -6.94821845	     -3.47542569	     -6.59168468	      0.96947018	      0.92381889	      0.53729909	     17.84281526	      4.07802648	     -5.61215599	     22.46793270	     22.46793270	     13.45995168	      1.11590862	     -0.04753137	     12.95652097	    -11.35843943	     -5.56045123	     44.95343497	     44.95343497	     10.23037430	    -17.19008221	     -3.38204505	     -8.62886057	      7.81970345	      1.27628849	     -4.81336393	    -15.59670219	    -20.12921562	     24.74068403	     46.78078834	      0.00000000	      0.00000000	     28.31755552	    -15.93730717	     -6.39629989	     63.95707099	     47.65228072	      0.00000000	      0.00000000
     10.17928571	     -6.68602792	     -3.47163049	     -5.91388971	      0.96853021	      0.92312379	      0.53960156	     17.53930638	      4.17292088	     -5.54138609	     23.12845841	     23.12845841	     14.10091664	     -0.08287283	     -0.02874450	     14.86920299	    -11.45237704	     -4.12568939	     48.69585698	     48.69585698	      9.99221149	    -17.82798305	     -0.43344957	     -8.67236689	      7.65453942	      0.94408674	     -2.96828342	    -15.74933959	    -20.04259244	     24.25814404	     46.81730893	      0.00000000	      0.00000000	     27.70464920	    -15.47262360	     -5.46378894	     60.10160133	     47.51709414	      0.00000000	      0.00000000
     10.19857143	     -6.30753087	     -3.58522387	     -5.19065651	      0.96756012	      0.92235053	      0.54170287	     17.06418343	      4.34558366	     -5.66484565	     23.71482908	     23.71482908	     14.76861550	     -0.99939578	      0.08270384	     16.79704212	    -11.54599967	     -2.63602089	     52.46936327	     52.46936327	     11.06890210	    -18.02224825	      5.49937094	     -8.88771653	      7.56179853	      1.37828438	     -1.44757892	    -15.96610682	    -20.18319212	     23.22292108	     46.90195728	      0.00000000	      0.00000000	     27.55133255	    -14.35444661	     -4.13057668	     56.02110189	     47.35046591	      0.00000000	      0.00000000
     10.21785714	     -5.93590385	     -3.66932207	     -4.41739342	      0.96649706	      0.92119296	      0.54362169	     16.74623425	      4.53039715	     -5.61006910	     24.54426118	     24.54426118	     15.43518591	     -2.36709818	      0.06423057	     18.65366241	    -11.61489385	     -1.37233414	     55.71182428	     55.71182428	     11.53184089	    -18.43198340	      9.37720011	     -9.09781580	      7.44936051	      1.20895233	      0.27711679	    -15.98491035	    -20.50517074	     23.38944175	     46.94653750	      0.00000000	      0.00000000	     26.55691411	    -13.72520489	     -3.23521485	     52.84696340	     47.22494195	      0.00000000	      0.00000000
     10.23714286	     -5.56399859	     -3.81561534	     -3.59591057	      0.96539787	      0.91970246	      0.54546464	     16.48298349	      4.77357556	     -5.67373630	     25.46712237	     25.46712237	     16.10281936	     -3.69401356	     -0.12261635	     20.39785901	    -11.87665872	     -0.46008499	     58.34588599	     58.34588599	     11.22486995	    -18.86749131	     10.28565938	     -9.33972608	      7.37772509	      0.84614942	      2.05159015	    -15.95138450	    -20.53495644	     24.11214901	     46.93399520	      0.00000000	      0.00000000	     24.93929011	    -13.21392681	     -2.74726898	     50.87464914	     47.14372213	      0.00000000	      0.00000000
     10.25642857	     -5.04719298	     -3.86050626	     -2.77962280	      0.96432251	      0.91838337	      0.54709008	     16.05849096	      5.00723929	     -5.36354382	     26.34526539	     26.34526539	     16.74129388	     -5.58177858	      0.04153776	     22.04879472	    -11.84808590	      0.49285424	     60.74752260	     60.74752260	     12.90111566	    -19.09430535	     16.08585289	     -9.66091405	      7.17739140	      0.93179609	      3.95524955	    -15.88601240	    -20.58706491	     24.18095766	     46.95410937	      0.00000000	      0.00000000	     24.43865131	    -12.27108130	     -1.57717749	     45.95212791	     46.97904956	      0.00000000	      0.00000000
     10.27571429	     -4.55481388	     -3.94929873	     -1.90354007	      0.96324996	      0.91674870	      0.54861002	     15.72053979	      5.26490091	     -5.22658419	     27.33348224	     27.33348224	     17.39850970	     -7.27128394	      0.07117995	     23.56546319	    -12.05242112	      1.06992608	     62.38681345	     62.38681345	     13.49560575	    -19.30963085	     17.91125141	     -9.98889566	      7.01189218	      0.50703602	      5.97295553	    -15.63842215	    -20.66426016	     25.33356178	     46.92383220	      0.00000000	      0.00000000	     22.85697128	    -11.78343785	     -0.91398825	     43.05970376	     46.86929706	      0.00000000	      0.00000000
     10.29500000	     -4.17365172	     -4.01279283	     -1.00660977	      0.96208734	      0.91484227	      0.54992526	     15.52967097	      5.48900248	     -5.18020523	     28.34305737	     28.34305737	     18.03371529	     -8.90990134	      0.09297842	     25.15599280	    -12.25553348	      1.47150747	     63.49675034	     63.49675034	     14.24303367	    -19.44655092	     19.37824911	    -10.15912274	      6.79926071	      0.16150254	      7.96899443	    -15.31998935	    -20.63604637	     26.56842833	     46.87977654	      0.00000000	      0.00000000	     21.12345771	    -11.20058219	     -0.33705538	     40.36126931	     46.76701464	      0.00000000	      0.00000000
     10.31428571	     -3.71354458	     -4.08239019	     -0.11896462	      0.96094773	      0.91316602	      0.55104871	     15.19828818	      5.71521244	     -5.19706115	     29.26025404	     29.26025404	     18.74712318	    -10.29130802	      0.50097871	     26.58424085	    -12.40188912	      1.80989387	     64.08548771	     64.08548771	     15.64550215	    -19.52606306	     22.24418195	    -10.47703328	      6.60099238	      0.55437058	      9.42016613	    -15.24911610	    -20.42975933	     28.35833517	     46.78166825	      0.00000000	      0.00000000	     20.30759825	    -10.16574638	      0.61508039	     36.01920732	     46.61849087	      0.00000000	      0.00000000
